<mxfile host="Electron" agent="Mozilla/5.0 (Windows NT 10.0; Win64; x64) AppleWebKit/537.36 (KHTML, like Gecko) draw.io/26.2.2 Chrome/134.0.6998.178 Electron/35.1.2 Safari/537.36" version="26.2.2">
  <diagram name="Page-1" id="mxH5JIdqIpF9Z6q8l0ky">
    <mxGraphModel dx="704" dy="463" grid="1" gridSize="10" guides="1" tooltips="1" connect="1" arrows="1" fold="1" page="1" pageScale="1" pageWidth="570" pageHeight="940" math="0" shadow="0">
      <root>
        <mxCell id="0" />
        <mxCell id="1" parent="0" />
        <mxCell id="pIpIHAx3rl5hvaJwcP8C-1" value="&lt;p style=&quot;margin:0px;margin-top:4px;text-align:center;&quot;&gt;&lt;i&gt;&amp;lt;&amp;lt;Abstract&amp;gt;&amp;gt;&lt;/i&gt;&lt;br&gt;&lt;b&gt;+ Sort&lt;/b&gt;&lt;/p&gt;&lt;hr size=&quot;1&quot; style=&quot;border-style:solid;&quot;&gt;&lt;p style=&quot;margin:0px;margin-left:4px;&quot;&gt;&lt;br&gt;&lt;/p&gt;&lt;hr size=&quot;1&quot; style=&quot;border-style:solid;&quot;&gt;&lt;p style=&quot;margin:0px;margin-left:4px;&quot;&gt;+ Sorting()&lt;br&gt;&lt;/p&gt;" style="verticalAlign=top;align=left;overflow=fill;html=1;whiteSpace=wrap;fillColor=none;" vertex="1" parent="1">
          <mxGeometry x="720" y="183" width="140" height="90" as="geometry" />
        </mxCell>
        <mxCell id="pIpIHAx3rl5hvaJwcP8C-2" value="+ Data" style="swimlane;fontStyle=1;align=center;verticalAlign=top;childLayout=stackLayout;horizontal=1;startSize=26;horizontalStack=0;resizeParent=1;resizeParentMax=0;resizeLast=0;collapsible=1;marginBottom=0;whiteSpace=wrap;html=1;fillColor=none;" vertex="1" parent="1">
          <mxGeometry x="410" y="169" width="160" height="104" as="geometry" />
        </mxCell>
        <mxCell id="pIpIHAx3rl5hvaJwcP8C-3" value="- sort: Sort&lt;div&gt;&lt;span style=&quot;background-color: transparent; color: light-dark(rgb(0, 0, 0), rgb(255, 255, 255));&quot;&gt;- listData : List&amp;lt;Integer&amp;gt;&amp;nbsp;&lt;/span&gt;&lt;/div&gt;" style="text;strokeColor=none;fillColor=none;align=left;verticalAlign=top;spacingLeft=4;spacingRight=4;overflow=hidden;rotatable=0;points=[[0,0.5],[1,0.5]];portConstraint=eastwest;whiteSpace=wrap;html=1;" vertex="1" parent="pIpIHAx3rl5hvaJwcP8C-2">
          <mxGeometry y="26" width="160" height="44" as="geometry" />
        </mxCell>
        <mxCell id="pIpIHAx3rl5hvaJwcP8C-4" value="" style="line;strokeWidth=1;fillColor=none;align=left;verticalAlign=middle;spacingTop=-1;spacingLeft=3;spacingRight=3;rotatable=0;labelPosition=right;points=[];portConstraint=eastwest;strokeColor=inherit;" vertex="1" parent="pIpIHAx3rl5hvaJwcP8C-2">
          <mxGeometry y="70" width="160" height="8" as="geometry" />
        </mxCell>
        <mxCell id="pIpIHAx3rl5hvaJwcP8C-5" value="+ LaunchSorting()" style="text;strokeColor=none;fillColor=none;align=left;verticalAlign=top;spacingLeft=4;spacingRight=4;overflow=hidden;rotatable=0;points=[[0,0.5],[1,0.5]];portConstraint=eastwest;whiteSpace=wrap;html=1;" vertex="1" parent="pIpIHAx3rl5hvaJwcP8C-2">
          <mxGeometry y="78" width="160" height="26" as="geometry" />
        </mxCell>
        <mxCell id="pIpIHAx3rl5hvaJwcP8C-6" value="+ Client" style="swimlane;fontStyle=1;align=center;verticalAlign=top;childLayout=stackLayout;horizontal=1;startSize=26;horizontalStack=0;resizeParent=1;resizeParentMax=0;resizeLast=0;collapsible=1;marginBottom=0;whiteSpace=wrap;html=1;fillColor=none;" vertex="1" parent="1">
          <mxGeometry x="180" y="191" width="160" height="60" as="geometry" />
        </mxCell>
        <mxCell id="pIpIHAx3rl5hvaJwcP8C-7" value="" style="line;strokeWidth=1;fillColor=none;align=left;verticalAlign=middle;spacingTop=-1;spacingLeft=3;spacingRight=3;rotatable=0;labelPosition=right;points=[];portConstraint=eastwest;strokeColor=inherit;" vertex="1" parent="pIpIHAx3rl5hvaJwcP8C-6">
          <mxGeometry y="26" width="160" height="8" as="geometry" />
        </mxCell>
        <mxCell id="pIpIHAx3rl5hvaJwcP8C-8" value="&amp;nbsp;" style="text;strokeColor=none;fillColor=none;align=left;verticalAlign=top;spacingLeft=4;spacingRight=4;overflow=hidden;rotatable=0;points=[[0,0.5],[1,0.5]];portConstraint=eastwest;whiteSpace=wrap;html=1;" vertex="1" parent="pIpIHAx3rl5hvaJwcP8C-6">
          <mxGeometry y="34" width="160" height="26" as="geometry" />
        </mxCell>
        <mxCell id="pIpIHAx3rl5hvaJwcP8C-9" value="+ QuickSort" style="swimlane;fontStyle=1;align=center;verticalAlign=top;childLayout=stackLayout;horizontal=1;startSize=26;horizontalStack=0;resizeParent=1;resizeParentMax=0;resizeLast=0;collapsible=1;marginBottom=0;whiteSpace=wrap;html=1;fillColor=none;" vertex="1" parent="1">
          <mxGeometry x="610" y="340" width="110" height="60" as="geometry" />
        </mxCell>
        <mxCell id="pIpIHAx3rl5hvaJwcP8C-10" value="" style="line;strokeWidth=1;fillColor=none;align=left;verticalAlign=middle;spacingTop=-1;spacingLeft=3;spacingRight=3;rotatable=0;labelPosition=right;points=[];portConstraint=eastwest;strokeColor=inherit;" vertex="1" parent="pIpIHAx3rl5hvaJwcP8C-9">
          <mxGeometry y="26" width="110" height="8" as="geometry" />
        </mxCell>
        <mxCell id="pIpIHAx3rl5hvaJwcP8C-11" value="+ Sorting()" style="text;strokeColor=none;fillColor=none;align=left;verticalAlign=top;spacingLeft=4;spacingRight=4;overflow=hidden;rotatable=0;points=[[0,0.5],[1,0.5]];portConstraint=eastwest;whiteSpace=wrap;html=1;" vertex="1" parent="pIpIHAx3rl5hvaJwcP8C-9">
          <mxGeometry y="34" width="110" height="26" as="geometry" />
        </mxCell>
        <mxCell id="pIpIHAx3rl5hvaJwcP8C-12" value="+ bubbleSort" style="swimlane;fontStyle=1;align=center;verticalAlign=top;childLayout=stackLayout;horizontal=1;startSize=26;horizontalStack=0;resizeParent=1;resizeParentMax=0;resizeLast=0;collapsible=1;marginBottom=0;whiteSpace=wrap;html=1;fillColor=none;" vertex="1" parent="1">
          <mxGeometry x="735" y="340" width="110" height="60" as="geometry" />
        </mxCell>
        <mxCell id="pIpIHAx3rl5hvaJwcP8C-13" value="" style="line;strokeWidth=1;fillColor=none;align=left;verticalAlign=middle;spacingTop=-1;spacingLeft=3;spacingRight=3;rotatable=0;labelPosition=right;points=[];portConstraint=eastwest;strokeColor=inherit;" vertex="1" parent="pIpIHAx3rl5hvaJwcP8C-12">
          <mxGeometry y="26" width="110" height="8" as="geometry" />
        </mxCell>
        <mxCell id="pIpIHAx3rl5hvaJwcP8C-14" value="+ Sorting()" style="text;strokeColor=none;fillColor=none;align=left;verticalAlign=top;spacingLeft=4;spacingRight=4;overflow=hidden;rotatable=0;points=[[0,0.5],[1,0.5]];portConstraint=eastwest;whiteSpace=wrap;html=1;" vertex="1" parent="pIpIHAx3rl5hvaJwcP8C-12">
          <mxGeometry y="34" width="110" height="26" as="geometry" />
        </mxCell>
        <mxCell id="pIpIHAx3rl5hvaJwcP8C-15" value="" style="endArrow=block;endSize=16;endFill=0;html=1;rounded=0;entryX=0.25;entryY=1;entryDx=0;entryDy=0;exitX=0.5;exitY=0;exitDx=0;exitDy=0;" edge="1" parent="1" source="pIpIHAx3rl5hvaJwcP8C-9" target="pIpIHAx3rl5hvaJwcP8C-1">
          <mxGeometry width="160" relative="1" as="geometry">
            <mxPoint x="170" y="286" as="sourcePoint" />
            <mxPoint x="170" y="170" as="targetPoint" />
          </mxGeometry>
        </mxCell>
        <mxCell id="pIpIHAx3rl5hvaJwcP8C-16" value="" style="endArrow=block;endSize=16;endFill=0;html=1;rounded=0;entryX=0.5;entryY=1;entryDx=0;entryDy=0;exitX=0.5;exitY=0;exitDx=0;exitDy=0;" edge="1" parent="1" source="pIpIHAx3rl5hvaJwcP8C-12" target="pIpIHAx3rl5hvaJwcP8C-1">
          <mxGeometry width="160" relative="1" as="geometry">
            <mxPoint x="375" y="370" as="sourcePoint" />
            <mxPoint x="545" y="276" as="targetPoint" />
          </mxGeometry>
        </mxCell>
        <mxCell id="pIpIHAx3rl5hvaJwcP8C-17" value="" style="endArrow=diamondThin;endSize=24;endFill=0;html=1;rounded=0;entryX=1.004;entryY=0.99;entryDx=0;entryDy=0;exitX=0.005;exitY=0.611;exitDx=0;exitDy=0;entryPerimeter=0;exitPerimeter=0;" edge="1" parent="1" source="pIpIHAx3rl5hvaJwcP8C-1" target="pIpIHAx3rl5hvaJwcP8C-3">
          <mxGeometry width="160" relative="1" as="geometry">
            <mxPoint x="375" y="370" as="sourcePoint" />
            <mxPoint x="510" y="276" as="targetPoint" />
          </mxGeometry>
        </mxCell>
        <mxCell id="pIpIHAx3rl5hvaJwcP8C-18" value="" style="endArrow=none;html=1;rounded=0;bendable=0;exitX=1.003;exitY=0.265;exitDx=0;exitDy=0;endFill=0;exitPerimeter=0;startFill=0;entryX=0.002;entryY=0.848;entryDx=0;entryDy=0;entryPerimeter=0;" edge="1" parent="1" source="pIpIHAx3rl5hvaJwcP8C-8" target="pIpIHAx3rl5hvaJwcP8C-3">
          <mxGeometry width="50" height="50" relative="1" as="geometry">
            <mxPoint x="1.1368683772161603e-13" y="280" as="sourcePoint" />
            <mxPoint x="411" y="230" as="targetPoint" />
          </mxGeometry>
        </mxCell>
        <mxCell id="pIpIHAx3rl5hvaJwcP8C-19" value="+ bySelectionSort" style="swimlane;fontStyle=1;align=center;verticalAlign=top;childLayout=stackLayout;horizontal=1;startSize=26;horizontalStack=0;resizeParent=1;resizeParentMax=0;resizeLast=0;collapsible=1;marginBottom=0;whiteSpace=wrap;html=1;fillColor=none;" vertex="1" parent="1">
          <mxGeometry x="855" y="340" width="130" height="60" as="geometry" />
        </mxCell>
        <mxCell id="pIpIHAx3rl5hvaJwcP8C-20" value="" style="line;strokeWidth=1;fillColor=none;align=left;verticalAlign=middle;spacingTop=-1;spacingLeft=3;spacingRight=3;rotatable=0;labelPosition=right;points=[];portConstraint=eastwest;strokeColor=inherit;" vertex="1" parent="pIpIHAx3rl5hvaJwcP8C-19">
          <mxGeometry y="26" width="130" height="8" as="geometry" />
        </mxCell>
        <mxCell id="pIpIHAx3rl5hvaJwcP8C-21" value="+ Sorting()" style="text;strokeColor=none;fillColor=none;align=left;verticalAlign=top;spacingLeft=4;spacingRight=4;overflow=hidden;rotatable=0;points=[[0,0.5],[1,0.5]];portConstraint=eastwest;whiteSpace=wrap;html=1;" vertex="1" parent="pIpIHAx3rl5hvaJwcP8C-19">
          <mxGeometry y="34" width="130" height="26" as="geometry" />
        </mxCell>
        <mxCell id="pIpIHAx3rl5hvaJwcP8C-22" value="" style="endArrow=block;endSize=16;endFill=0;html=1;rounded=0;entryX=0.75;entryY=1;entryDx=0;entryDy=0;exitX=0.5;exitY=0;exitDx=0;exitDy=0;" edge="1" parent="1" source="pIpIHAx3rl5hvaJwcP8C-19" target="pIpIHAx3rl5hvaJwcP8C-1">
          <mxGeometry width="160" relative="1" as="geometry">
            <mxPoint x="765" y="350" as="sourcePoint" />
            <mxPoint x="665" y="283" as="targetPoint" />
          </mxGeometry>
        </mxCell>
      </root>
    </mxGraphModel>
  </diagram>
</mxfile>
